#Comment line ignore any data following # character 
#Hierarchical Translation and Rotation (.htr) file 
[Header]	
#Header keywords are followed by a single value 
FileType HTR		#Single word string
DataType HTRS		#Translation followed by rotation and scale data
FileVersion 1		#integer
NumSegments 84		#integer
NumFrames 2		#integer
DataFrameRate 30		#integer, data frame rate in this file
EulerRotationOrder ZYX
CalibrationUnits mm
RotationUnits Degrees
GlobalAxisofGravity Y
BoneLengthAxis Y
ScaleFactor 1.00
[SegmentNames&Hierarchy]
#CHILD	PARENT
MASTER GLOBAL
root MASTER
chest root
L_mid_tent01 root
R_mid_tent01 root
spine01 root
Bip01_Neck chest
L_humerus chest
R_humerus chest
weapon_bone chest
Bip01_Head Bip01_Neck
eye_left_bone Bip01_Head
eye_right_bone Bip01_Head
L_forearm L_humerus
L_front_hand L_forearm
L_weapon_bone L_forearm
L_front_hand01_01 L_front_hand
L_front_hand02_01 L_front_hand
L_front_hand03_01 L_front_hand
L_front_hand01_02 L_front_hand01_01
L_front_hand02_02 L_front_hand02_01
L_front_hand03_02 L_front_hand03_01
R_forearm R_humerus
R_front_hand R_forearm
R_weapon_bone R_forearm
R_front_hand01_01 R_front_hand
R_front_hand02_01 R_front_hand
R_front_hand03_01 R_front_hand
R_front_hand01_02 R_front_hand01_01
R_front_hand02_02 R_front_hand02_01
R_front_hand03_02 R_front_hand03_01
null_rope01_connect L_mid_tent01
Rope1_Seg01 null_rope01_connect
Rope1_Seg02 Rope1_Seg01
Rope1_Seg03 Rope1_Seg02
Rope1_Seg04 Rope1_Seg03
Rope1_Seg05 Rope1_Seg04
Rope1_Seg06 Rope1_Seg05
Rope1_Seg07 Rope1_Seg06
Rope1_Seg09 Rope1_Seg07
L_mid_hand01 Rope1_Seg09
L_mid_hand02 Rope1_Seg09
L_mid_hand03 Rope1_Seg09
null_rope02_connect R_mid_tent01
Rope2_Seg01 null_rope02_connect
Rope2_Seg02 Rope2_Seg01
Rope2_Seg03 Rope2_Seg02
Rope2_Seg04 Rope2_Seg03
Rope2_Seg05 Rope2_Seg04
Rope2_Seg06 Rope2_Seg05
Rope2_Seg07 Rope2_Seg06
Rope2_Seg09 Rope2_Seg07
R_mid_hand01 Rope2_Seg09
R_mid_hand02 Rope2_Seg09
R_mid_hand03 Rope2_Seg09
spine02 spine01
spine03 spine02
pelvis spine03
null_rope03_connect pelvis
null_rope04_connect pelvis
Rope3_Seg01 null_rope03_connect
Rope3_Seg02 Rope3_Seg01
Rope3_Seg03 Rope3_Seg02
Rope3_Seg04 Rope3_Seg03
Rope3_Seg05 Rope3_Seg04
Rope3_Seg06 Rope3_Seg05
Rope3_Seg07 Rope3_Seg06
Rope3_Seg08 Rope3_Seg07
Rope3_Seg09 Rope3_Seg08
R_rear_hand01 Rope3_Seg09
R_rear_hand02 Rope3_Seg09
R_rear_hand03 Rope3_Seg09
Rope4_Seg01 null_rope04_connect
Rope4_Seg02 Rope4_Seg01
Rope4_Seg03 Rope4_Seg02
Rope4_Seg04 Rope4_Seg03
Rope4_Seg05 Rope4_Seg04
Rope4_Seg06 Rope4_Seg05
Rope4_Seg07 Rope4_Seg06
Rope4_Seg08 Rope4_Seg07
Rope4_Seg09 Rope4_Seg08
L_rear_hand01 Rope4_Seg09
L_rear_hand02 Rope4_Seg09
L_rear_hand03 Rope4_Seg09
[BasePosition]
#SegmentName Tx, Ty, Tz, Rx, Ry, Rz, BoneLength
MASTER 0.000000 0.000000 0.000000 -90.000000 0.000000 0.000000 10.000000 
root 0.000000 0.000000 0.000000 0.000000 0.000000 0.000000 10.000000 
chest 0.000000 0.000000 0.000000 0.000000 0.000000 0.000000 10.000000 
L_mid_tent01 0.000000 0.000000 0.000000 0.000000 0.000000 0.000000 10.000000 
R_mid_tent01 0.000000 0.000000 0.000000 0.000000 0.000000 0.000000 10.000000 
spine01 0.000000 0.000000 0.000000 0.000000 0.000000 0.000000 10.000000 
Bip01_Neck 0.000000 0.000000 0.000000 0.000000 0.000000 0.000000 10.000000 
L_humerus 0.000000 0.000000 0.000000 0.000000 0.000000 0.000000 10.000000 
R_humerus 0.000000 0.000000 0.000000 0.000000 0.000000 0.000000 10.000000 
weapon_bone 0.000000 0.000000 0.000000 0.000000 0.000000 0.000000 10.000000 
Bip01_Head 0.000000 0.000000 0.000000 0.000000 0.000000 0.000000 10.000000 
eye_left_bone 0.000000 0.000000 0.000000 0.000000 0.000000 0.000000 10.000000 
eye_right_bone 0.000000 0.000000 0.000000 0.000000 0.000000 0.000000 10.000000 
L_forearm 0.000000 0.000000 0.000000 0.000000 0.000000 0.000000 10.000000 
L_front_hand 0.000000 0.000000 0.000000 0.000000 0.000000 0.000000 10.000000 
L_weapon_bone 0.000000 0.000000 0.000000 0.000000 0.000000 0.000000 10.000000 
L_front_hand01_01 0.000000 0.000000 0.000000 0.000000 0.000000 0.000000 10.000000 
L_front_hand02_01 0.000000 0.000000 0.000000 0.000000 0.000000 0.000000 10.000000 
L_front_hand03_01 0.000000 0.000000 0.000000 0.000000 0.000000 0.000000 10.000000 
L_front_hand01_02 0.000000 0.000000 0.000000 0.000000 0.000000 0.000000 10.000000 
L_front_hand02_02 0.000000 0.000000 0.000000 0.000000 0.000000 0.000000 10.000000 
L_front_hand03_02 0.000000 0.000000 0.000000 0.000000 0.000000 0.000000 10.000000 
R_forearm 0.000000 0.000000 0.000000 0.000000 0.000000 0.000000 10.000000 
R_front_hand 0.000000 0.000000 0.000000 0.000000 0.000000 0.000000 10.000000 
R_weapon_bone 0.000000 0.000000 0.000000 0.000000 0.000000 0.000000 10.000000 
R_front_hand01_01 0.000000 0.000000 0.000000 0.000000 0.000000 0.000000 10.000000 
R_front_hand02_01 0.000000 0.000000 0.000000 0.000000 0.000000 0.000000 10.000000 
R_front_hand03_01 0.000000 0.000000 0.000000 0.000000 0.000000 0.000000 10.000000 
R_front_hand01_02 0.000000 0.000000 0.000000 0.000000 0.000000 0.000000 10.000000 
R_front_hand02_02 0.000000 0.000000 0.000000 0.000000 0.000000 0.000000 10.000000 
R_front_hand03_02 0.000000 0.000000 0.000000 0.000000 0.000000 0.000000 10.000000 
null_rope01_connect 0.000000 0.000000 0.000000 0.000000 0.000000 0.000000 10.000000 
Rope1_Seg01 0.000000 0.000000 0.000000 0.000000 0.000000 0.000000 10.000000 
Rope1_Seg02 0.000000 0.000000 0.000000 0.000000 0.000000 0.000000 10.000000 
Rope1_Seg03 0.000000 0.000000 0.000000 0.000000 0.000000 0.000000 10.000000 
Rope1_Seg04 0.000000 0.000000 0.000000 0.000000 0.000000 0.000000 10.000000 
Rope1_Seg05 0.000000 0.000000 0.000000 0.000000 0.000000 0.000000 10.000000 
Rope1_Seg06 0.000000 0.000000 0.000000 0.000000 0.000000 0.000000 10.000000 
Rope1_Seg07 0.000000 0.000000 0.000000 0.000000 0.000000 0.000000 10.000000 
Rope1_Seg09 0.000000 0.000000 0.000000 0.000000 0.000000 0.000000 10.000000 
L_mid_hand01 0.000000 0.000000 0.000000 0.000000 0.000000 0.000000 10.000000 
L_mid_hand02 0.000000 0.000000 0.000000 0.000000 0.000000 0.000000 10.000000 
L_mid_hand03 0.000000 0.000000 0.000000 0.000000 0.000000 0.000000 10.000000 
null_rope02_connect 0.000000 0.000000 0.000000 0.000000 0.000000 0.000000 10.000000 
Rope2_Seg01 0.000000 0.000000 0.000000 0.000000 0.000000 0.000000 10.000000 
Rope2_Seg02 0.000000 0.000000 0.000000 0.000000 0.000000 0.000000 10.000000 
Rope2_Seg03 0.000000 0.000000 0.000000 0.000000 0.000000 0.000000 10.000000 
Rope2_Seg04 0.000000 0.000000 0.000000 0.000000 0.000000 0.000000 10.000000 
Rope2_Seg05 0.000000 0.000000 0.000000 0.000000 0.000000 0.000000 10.000000 
Rope2_Seg06 0.000000 0.000000 0.000000 0.000000 0.000000 0.000000 10.000000 
Rope2_Seg07 0.000000 0.000000 0.000000 0.000000 0.000000 0.000000 10.000000 
Rope2_Seg09 0.000000 0.000000 0.000000 0.000000 0.000000 0.000000 10.000000 
R_mid_hand01 0.000000 0.000000 0.000000 0.000000 0.000000 0.000000 10.000000 
R_mid_hand02 0.000000 0.000000 0.000000 0.000000 0.000000 0.000000 10.000000 
R_mid_hand03 0.000000 0.000000 0.000000 0.000000 0.000000 0.000000 10.000000 
spine02 0.000000 0.000000 0.000000 0.000000 0.000000 0.000000 10.000000 
spine03 0.000000 0.000000 0.000000 0.000000 0.000000 0.000000 10.000000 
pelvis 0.000000 0.000000 0.000000 0.000000 0.000000 0.000000 10.000000 
null_rope03_connect 0.000000 0.000000 0.000000 0.000000 0.000000 0.000000 10.000000 
null_rope04_connect 0.000000 0.000000 0.000000 0.000000 0.000000 0.000000 10.000000 
Rope3_Seg01 0.000000 0.000000 0.000000 0.000000 0.000000 0.000000 10.000000 
Rope3_Seg02 0.000000 0.000000 0.000000 0.000000 0.000000 0.000000 10.000000 
Rope3_Seg03 0.000000 0.000000 0.000000 0.000000 0.000000 0.000000 10.000000 
Rope3_Seg04 0.000000 0.000000 0.000000 0.000000 0.000000 0.000000 10.000000 
Rope3_Seg05 0.000000 0.000000 0.000000 0.000000 0.000000 0.000000 10.000000 
Rope3_Seg06 0.000000 0.000000 0.000000 0.000000 0.000000 0.000000 10.000000 
Rope3_Seg07 0.000000 0.000000 0.000000 0.000000 0.000000 0.000000 10.000000 
Rope3_Seg08 0.000000 0.000000 0.000000 0.000000 0.000000 0.000000 10.000000 
Rope3_Seg09 0.000000 0.000000 0.000000 0.000000 0.000000 0.000000 10.000000 
R_rear_hand01 0.000000 0.000000 0.000000 0.000000 0.000000 0.000000 10.000000 
R_rear_hand02 0.000000 0.000000 0.000000 0.000000 0.000000 0.000000 10.000000 
R_rear_hand03 0.000000 0.000000 0.000000 0.000000 0.000000 0.000000 10.000000 
Rope4_Seg01 0.000000 0.000000 0.000000 0.000000 0.000000 0.000000 10.000000 
Rope4_Seg02 0.000000 0.000000 0.000000 0.000000 0.000000 0.000000 10.000000 
Rope4_Seg03 0.000000 0.000000 0.000000 0.000000 0.000000 0.000000 10.000000 
Rope4_Seg04 0.000000 0.000000 0.000000 0.000000 0.000000 0.000000 10.000000 
Rope4_Seg05 0.000000 0.000000 0.000000 0.000000 0.000000 0.000000 10.000000 
Rope4_Seg06 0.000000 0.000000 0.000000 0.000000 0.000000 0.000000 10.000000 
Rope4_Seg07 0.000000 0.000000 0.000000 0.000000 0.000000 0.000000 10.000000 
Rope4_Seg08 0.000000 0.000000 0.000000 0.000000 0.000000 0.000000 10.000000 
Rope4_Seg09 0.000000 0.000000 0.000000 0.000000 0.000000 0.000000 10.000000 
L_rear_hand01 0.000000 0.000000 0.000000 0.000000 0.000000 0.000000 10.000000 
L_rear_hand02 0.000000 0.000000 0.000000 0.000000 0.000000 0.000000 10.000000 
L_rear_hand03 0.000000 0.000000 0.000000 0.000000 0.000000 0.000000 10.000000 
#Beginning of Data. Separated by tabs
#Fr	Tx	Ty	Tz	Rx	Ry	Rz	SF
[MASTER]
9 0.000000 0.000000 0.000000 0.001660 0.001660 0.001660 0.000000
10 0.000000 0.000000 0.000000 0.001660 0.001660 0.001660 0.000000
[root]
9 -27.884632 -56.740528 1501.395752 -78.216667 -39.024372 -87.973343 1502.726196
10 -27.884632 -56.740528 1501.395752 -78.216667 -39.024372 -87.973343 1502.726196
[chest]
9 -84.512650 -34.090519 0.000000 -2.594532 -0.201363 179.701126 91.129311
10 -84.512650 -34.090519 0.000000 -2.594532 -0.201363 179.701126 91.129311
[L_mid_tent01]
9 27.299511 22.177458 -249.918259 3.862628 36.229202 81.347610 252.381134
10 27.299511 22.177458 -249.918259 3.862628 36.229202 81.347610 252.381134
[R_mid_tent01]
9 23.228794 24.509907 226.238495 160.432022 -47.061237 87.899765 228.744751
10 23.228794 24.509907 226.238495 160.432037 -47.061241 87.899765 228.744751
[spine01]
9 -0.361383 -0.195265 0.000000 0.002062 0.001122 32.879829 0.410763
10 -0.361383 -0.195265 0.000000 0.002062 0.001122 32.879829 0.410763
[Bip01_Neck]
9 165.484543 71.581718 0.000119 176.643677 -1.657967 43.431911 180.302734
10 165.484543 71.581718 0.000119 176.643677 -1.657967 43.431911 180.302734
[L_humerus]
9 -13.983130 -135.272980 -120.471481 156.317398 70.210068 -112.010254 181.680161
10 -13.983130 -135.272980 -120.471481 156.317398 70.210068 -112.010254 181.680161
[R_humerus]
9 -13.983309 -135.273102 125.287651 -172.382263 -66.903831 -92.553993 184.909012
10 -13.983309 -135.273102 125.287651 -172.382263 -66.903831 -92.553993 184.909012
[weapon_bone]
9 235.964890 -300.705902 0.000000 0.000000 -89.951546 -128.212341 382.234833
10 235.964890 -300.705902 0.000000 0.000000 -89.951546 -128.212341 382.234833
[Bip01_Head]
9 213.372009 185.916519 9.179935 9.067746 3.281934 -43.888084 283.155151
10 213.372025 185.916519 9.179937 9.067745 3.281933 -43.888077 283.155151
[eye_left_bone]
9 -24.626970 125.451866 -64.772606 0.000000 -90.000000 -99.840431 143.318359
10 -24.626970 125.451866 -64.772606 0.000000 -90.000000 -99.840431 143.318359
[eye_right_bone]
9 -24.626970 125.451866 64.327362 0.000000 -89.980217 80.156380 143.117676
10 -24.626970 125.451866 64.327362 0.000000 -89.965736 80.156380 143.117676
[L_forearm]
9 322.776093 0.000000 -0.000119 0.000119 -0.002344 -95.807457 322.776093
10 322.776093 0.000000 -0.000119 0.000119 -0.002344 -95.807457 322.776093
[L_front_hand]
9 241.149185 -0.042021 -3.300071 -178.667953 -1.835447 -27.422350 241.171753
10 241.149185 -0.042021 -3.300071 -178.667953 -1.835447 -27.422350 241.171753
[L_weapon_bone]
9 156.183838 0.000000 0.000000 0.000014 0.000007 0.000001 156.183838
10 156.183838 0.000000 0.000000 0.000014 0.000007 0.000001 156.183838
[L_front_hand01_01]
9 86.095154 20.947098 -0.655860 -0.366594 -0.477154 75.385574 88.609184
10 86.095154 20.947098 -0.655860 -0.366594 -0.477154 75.385574 88.609184
[L_front_hand02_01]
9 86.935165 -11.437475 24.513514 154.399796 -59.883835 -61.369587 91.046425
10 86.935165 -11.437475 24.513514 154.399796 -59.883835 -61.369587 91.046425
[L_front_hand03_01]
9 86.637497 -14.123976 -20.424902 -153.913849 58.118122 -62.702850 90.126129
10 86.637497 -14.123976 -20.424902 -153.913849 58.118122 -62.702866 90.126129
[L_front_hand01_02]
9 71.020905 -0.000179 0.000030 0.000334 -0.002323 -106.379684 71.020905
10 71.020905 -0.000179 0.000030 0.000334 -0.002323 -106.379684 71.020905
[L_front_hand02_02]
9 71.020927 -0.000119 0.000060 0.000334 -0.002323 -106.379684 71.020927
10 71.020927 -0.000119 0.000060 0.000334 -0.002323 -106.379684 71.020927
[L_front_hand03_02]
9 71.020905 -0.000060 0.000060 0.000334 -0.002323 -106.379684 71.020905
10 71.020905 -0.000060 0.000060 0.000334 -0.002323 -106.379684 71.020905
[R_forearm]
9 322.776428 -0.000060 0.000030 0.209504 0.012586 -94.339050 322.776428
10 322.776428 -0.000060 0.000030 0.209504 0.012586 -94.339050 322.776428
[R_front_hand]
9 238.847015 -0.006795 2.210259 -2.635298 -10.645461 -26.312506 238.857239
10 238.847015 -0.006795 2.210259 -2.635298 -10.645461 -26.312506 238.857239
[R_weapon_bone]
9 155.664093 0.002503 -0.000030 0.003487 0.001180 -90.988930 155.664078
10 155.664093 0.002503 -0.000030 0.003487 0.001180 -90.988930 155.664078
[R_front_hand01_01]
9 87.624611 14.231146 22.918642 -154.633499 -59.950619 61.746044 91.683487
10 87.624611 14.231146 22.918642 -154.633514 -59.950634 61.746063 91.683487
[R_front_hand02_01]
9 89.356956 14.367283 -19.491137 154.602661 58.302849 63.744389 92.579636
10 89.356956 14.367283 -19.491137 154.602661 58.302849 63.744389 92.579636
[R_front_hand03_01]
9 87.286232 -22.307278 -0.143439 0.162155 -0.423168 -75.767921 90.091743
10 87.286232 -22.307278 -0.143439 0.162155 -0.423168 -75.767921 90.091743
[R_front_hand01_02]
9 71.020905 0.000060 0.000119 0.002323 -0.000334 106.381714 71.020905
10 71.020905 0.000060 0.000119 0.002323 -0.000334 106.381714 71.020905
[R_front_hand02_02]
9 71.020844 -0.000030 -0.000119 0.002323 -0.000334 106.381714 71.020836
10 71.020844 -0.000030 -0.000119 0.002323 -0.000334 106.381714 71.020836
[R_front_hand03_02]
9 71.020905 0.000000 0.000030 0.002323 -0.000334 106.381714 71.020905
10 71.020905 0.000000 0.000030 0.002323 -0.000334 106.381714 71.020905
[null_rope01_connect]
9 328.732483 0.000000 -0.000238 -121.867188 -66.548256 170.046265 328.732483
10 328.732483 0.000000 -0.000238 -121.867149 -66.548218 170.046249 328.732483
[Rope1_Seg01]
9 0.000000 0.000000 0.000000 108.204620 1.561318 -169.125015 0.000000
10 0.000000 0.000000 0.000000 107.555489 0.653515 -168.978897 0.000000
[Rope1_Seg02]
9 139.999863 -0.000179 0.000000 13.466731 -15.613143 -9.503151 139.999863
10 139.999863 -0.000179 0.000000 13.655909 -15.581880 -9.955110 139.999863
[Rope1_Seg03]
9 139.999924 0.000060 -0.000060 17.155344 -26.534473 -14.130059 139.999924
10 139.999924 0.000060 -0.000060 17.945171 -27.011814 -15.112258 139.999924
[Rope1_Seg04]
9 139.999924 -0.000060 -0.000119 3.754966 -27.387690 0.079605 139.999924
10 139.999924 -0.000060 -0.000119 3.973382 -27.287172 -0.382603 139.999924
[Rope1_Seg05]
9 139.999832 0.000119 -0.000060 -3.525223 -18.985491 15.700100 139.999832
10 139.999832 0.000119 -0.000060 -3.220051 -18.113779 15.831313 139.999832
[Rope1_Seg06]
9 139.999954 0.000119 -0.000060 -2.310099 -9.648633 6.240985 139.999954
10 139.999954 0.000119 -0.000060 -2.075118 -9.472548 6.579790 139.999954
[Rope1_Seg07]
9 139.999985 0.000060 0.000000 -1.727529 -5.208351 2.739367 139.999985
10 139.999985 0.000060 0.000000 -1.581143 -5.164872 2.920204 139.999985
[Rope1_Seg09]
9 121.602913 0.000119 -0.000089 -89.793175 -1.359789 0.847147 121.602913
10 121.602913 0.000119 -0.000089 -89.793175 -1.359789 0.847147 121.602913
[L_mid_hand01]
9 103.859421 1.038730 8.195221 130.544373 -67.584534 -38.866943 104.187431
10 103.859421 1.038730 8.195221 130.544373 -67.584534 -38.866943 104.187431
[L_mid_hand02]
9 105.572853 -4.139662 -10.864139 -168.923172 43.409317 -73.498901 106.211075
10 105.572853 -4.139662 -10.864139 -168.923172 43.409309 -73.498886 106.211075
[L_mid_hand03]
9 104.641464 17.579376 -3.913581 -6.012628 17.808178 74.893669 106.179977
10 104.641464 17.579376 -3.913581 -6.012627 17.808174 74.893669 106.179977
[null_rope02_connect]
9 328.732849 0.000179 -0.000119 -116.101486 27.529919 12.015827 328.732849
10 328.732849 0.000179 -0.000119 -116.101486 27.529917 12.015827 328.732849
[Rope2_Seg01]
9 -0.000038 0.000153 0.000000 -38.565937 0.732667 -2.434432 0.000157
10 -0.000038 0.000153 0.000000 -38.289959 0.506839 -2.572131 0.000157
[Rope2_Seg02]
9 139.999741 -0.000060 -0.000119 -15.582853 5.669474 15.659283 139.999756
10 139.999741 -0.000060 -0.000119 -15.600514 5.743227 15.593587 139.999756
[Rope2_Seg03]
9 140.000107 0.000030 0.000000 -14.615425 0.645481 21.740835 140.000107
10 140.000107 0.000030 0.000000 -14.798097 0.768403 21.906315 140.000107
[Rope2_Seg04]
9 139.999802 0.000000 -0.000060 -7.332333 -4.408035 17.634268 139.999802
10 139.999802 0.000000 -0.000060 -7.473334 -4.443722 17.939737 139.999802
[Rope2_Seg05]
9 139.999985 -0.000060 0.000119 -4.309934 -0.601235 16.557671 139.999985
10 139.999985 -0.000060 0.000119 -4.239880 -0.516169 16.288702 139.999985
[Rope2_Seg06]
9 139.999893 -0.000030 -0.000119 -2.512798 -0.312812 20.508821 139.999893
10 139.999893 -0.000030 -0.000119 -2.514697 -0.091536 19.805513 139.999893
[Rope2_Seg07]
9 139.999893 0.000060 -0.000060 -0.067629 -1.789247 14.260067 139.999893
10 139.999893 0.000060 -0.000060 -0.206814 -1.667159 13.917929 139.999893
[Rope2_Seg09]
9 121.338966 0.000089 -0.000060 33.793236 -1.359788 -0.847141 121.338966
10 121.338966 0.000089 -0.000060 33.793236 -1.359788 -0.847141 121.338966
[R_mid_hand01]
9 104.680779 11.144459 -10.335981 -16.212063 45.237240 70.462852 105.778534
10 104.680779 11.144459 -10.335981 -16.212063 45.237247 70.462852 105.778534
[R_mid_hand02]
9 104.070427 2.443552 8.231699 49.067368 -67.749771 39.286453 104.424065
10 104.070427 2.443552 8.231699 49.067368 -67.749771 39.286453 104.424065
[R_mid_hand03]
9 106.028137 -11.221827 -5.996406 -177.101105 15.551026 -76.585571 106.788818
10 106.028137 -11.221827 -5.996406 -177.101105 15.551026 -76.585571 106.788818
[spine02]
9 129.756927 0.001550 0.000119 -1.023900 -3.926965 6.770994 129.756927
10 129.756927 0.001550 0.000119 -1.023899 -3.926965 6.770993 129.756927
[spine03]
9 78.613846 0.087372 -4.898873 1.040681 4.146420 4.212376 78.766380
10 78.613846 0.087372 -4.898873 1.040681 4.146420 4.212376 78.766380
[pelvis]
9 169.435242 0.051022 0.000000 0.019518 -0.190233 -10.721436 169.435257
10 169.435242 0.051022 0.000000 0.019518 -0.190233 -10.721436 169.435257
[null_rope03_connect]
9 -1.257226 -2.466202 137.391083 46.458332 -77.110146 49.356045 137.418976
10 -1.257226 -2.466202 137.391083 46.458321 -77.110146 49.356079 137.418976
[null_rope04_connect]
9 -1.259640 -2.480268 -137.844437 46.458332 -77.110146 49.356045 137.872513
10 -1.259640 -2.480268 -137.844437 46.458321 -77.110146 49.356079 137.872513
[Rope3_Seg01]
9 0.000000 0.000000 0.000000 -148.995590 -78.779755 -72.191841 0.000000
10 0.000000 0.000000 0.000000 -148.814148 -78.905022 -72.415016 0.000000
[Rope3_Seg02]
9 139.999924 -0.000119 0.000060 -0.323915 -5.244832 -11.867160 139.999924
10 139.999924 -0.000119 0.000060 -0.254904 -5.346581 -11.785936 139.999924
[Rope3_Seg03]
9 139.999924 -0.000119 0.000119 -1.245191 -6.338293 -14.282641 139.999924
10 139.999924 -0.000119 0.000119 -1.091108 -6.590787 -14.420199 139.999924
[Rope3_Seg04]
9 139.999924 0.000119 0.000000 2.043765 -8.483994 -11.696633 139.999924
10 139.999924 0.000119 0.000000 2.451812 -8.926968 -12.044920 139.999924
[Rope3_Seg05]
9 139.999924 -0.000238 0.000060 -9.812591 -2.612524 -11.073155 139.999924
10 139.999924 -0.000238 0.000060 -10.388004 -2.811620 -11.366836 139.999924
[Rope3_Seg06]
9 139.999893 -0.000119 -0.000060 -73.944656 8.711505 -23.356495 139.999893
10 139.999893 -0.000119 -0.000060 -77.882042 9.138516 -23.900160 139.999893
[Rope3_Seg07]
9 139.999771 0.000060 -0.000119 -29.169733 31.744287 2.007786 139.999771
10 139.999771 0.000060 -0.000119 -25.734049 31.325788 4.460508 139.999771
[Rope3_Seg08]
9 139.999985 -0.000060 0.000000 -3.027083 13.550977 8.034464 139.999985
10 139.999985 -0.000060 0.000000 -2.633124 13.137526 8.186545 139.999985
[Rope3_Seg09]
9 90.185997 -0.000179 -0.000060 89.793228 -1.359877 -0.847183 90.185997
10 90.185997 -0.000179 -0.000060 89.793228 -1.359877 -0.847183 90.185997
[R_rear_hand01]
9 103.366196 -6.073594 -10.757982 -177.714203 24.565960 -73.910950 104.101845
10 103.366196 -6.073594 -10.757982 -177.714203 24.565960 -73.910950 104.101845
[R_rear_hand02]
9 100.509819 12.039542 -7.992327 -12.874829 36.868488 72.167213 101.543350
10 100.509819 12.039542 -7.992327 -12.874829 36.868488 72.167213 101.543350
[R_rear_hand03]
9 101.539970 5.215704 5.435467 71.484634 -71.816666 21.513842 101.819031
10 101.539970 5.215704 5.435467 71.484581 -71.816628 21.513813 101.819031
[Rope4_Seg01]
9 0.000019 -0.000114 -0.000153 67.639595 -40.735592 -125.713844 0.000192
10 0.000018 -0.000114 -0.000153 67.664940 -40.656467 -125.815079 0.000192
[Rope4_Seg02]
9 139.999985 0.000060 0.000119 2.529694 -13.228992 -3.091326 139.999985
10 139.999985 0.000060 0.000119 2.537430 -13.207564 -3.072867 139.999985
[Rope4_Seg03]
9 139.999924 0.000000 -0.000238 10.213276 -22.192715 -4.627414 139.999924
10 139.999924 0.000000 -0.000238 10.251528 -22.153419 -4.570492 139.999924
[Rope4_Seg04]
9 139.999985 0.000000 0.000119 59.120556 -23.728760 -2.250237 139.999985
10 139.999985 0.000000 0.000119 59.280640 -23.758461 -2.053182 139.999985
[Rope4_Seg05]
9 139.999802 -0.000060 -0.000119 66.781296 -9.259750 17.546873 139.999802
10 139.999802 -0.000060 -0.000119 66.420425 -9.304748 17.601084 139.999802
[Rope4_Seg06]
9 139.999924 0.000000 0.000060 15.098506 21.837009 22.674702 139.999924
10 139.999924 0.000000 0.000060 15.346130 21.120192 22.585035 139.999924
[Rope4_Seg07]
9 139.999802 0.000000 0.000000 4.034651 17.902052 12.854142 139.999802
10 139.999802 0.000000 0.000000 4.051042 17.434092 12.701164 139.999802
[Rope4_Seg08]
9 139.999924 0.000000 0.000119 -0.749404 8.138824 5.369790 139.999924
10 139.999924 0.000000 0.000119 -0.722103 8.033176 5.357148 139.999924
[Rope4_Seg09]
9 90.185791 0.000060 0.000060 -135.617828 2.228885 0.850567 90.185791
10 90.185791 0.000060 0.000060 -135.617828 2.228885 0.850567 90.185791
[L_rear_hand01]
9 101.696655 -8.392275 -7.654577 -12.874829 -36.868488 107.832764 102.329041
10 101.696655 -8.392275 -7.654577 -12.874829 -36.868488 107.832764 102.329041
[L_rear_hand02]
9 102.726799 -1.568258 5.773216 71.484634 71.816666 158.486160 102.900848
10 102.726799 -1.568258 5.773216 71.484581 71.816628 158.486160 102.900848
[L_rear_hand03]
9 104.552910 9.721220 -10.420293 -177.714203 -24.565960 -106.089035 105.519653
10 104.552910 9.721220 -10.420293 -177.714203 -24.565960 -106.089035 105.519653
